<?xml version="1.0" encoding="UTF-8" standalone="no"?>
<svg
   xmlns:dc="http://purl.org/dc/elements/1.1/"
   xmlns:cc="http://creativecommons.org/ns#"
   xmlns:rdf="http://www.w3.org/1999/02/22-rdf-syntax-ns#"
   xmlns:svg="http://www.w3.org/2000/svg"
   xmlns="http://www.w3.org/2000/svg"
   viewBox="0 0 284.10666 201.46667"
   height="201.46667"
   width="284.10666"
   xml:space="preserve"
   id="svg2"
   version="1.1"><metadata
     id="metadata8"><rdf:RDF><cc:Work
         rdf:about=""><dc:format>image/svg+xml</dc:format><dc:type
           rdf:resource="http://purl.org/dc/dcmitype/StillImage" /></cc:Work></rdf:RDF></metadata><defs
     id="defs6" /><g
     transform="matrix(1.3333333,0,0,-1.3333333,0,201.46667)"
     id="g10"><g
       transform="scale(0.1)"
       id="g12"><!--style="fill:#254aa5;fill-opacity:1;fill-rule:nonzero;stroke:none"--><path
         id="path14"
         style="fill:#000085;fill-opacity:1;fill-rule:nonzero;stroke:none"
         d="M 2130.79,755.508 C 2130.79,338.254 1653.8,0 1065.4,0 476.992,0 0,338.254 0,755.508 c 0,417.262 476.992,755.512 1065.4,755.512 588.4,0 1065.39,-338.25 1065.39,-755.512" /><path
         id="path16"
         style="fill:#fff200;fill-opacity:1;fill-rule:evenodd;stroke:none"
         d="m 1236.85,349.109 h 339.86 l 20.39,117.246 h -57.78 l 105.38,610.065 h -283.79 l -18.69,-115.549 h 64.57 l -84.97,-494.516 h -66.27 l -18.7,-117.246" /><path
         id="path18"
         style="fill:#fff200;fill-opacity:1;fill-rule:nonzero;stroke:none"
         d="m 985.355,855.508 h 66.275 L 985.355,442.566 C 976.5,389.707 967.59,334.031 912.289,333.809 h -50.98 l -22.11,-137.637 c -0.601,-0.488 72.051,-12.547 124.059,-13.606 149.772,-3.308 214.922,75.649 237.902,214.122 l 93.46,586.273 H 1005.76 L 985.355,855.508" /><path
         id="path20"
         style="fill:#fff200;fill-opacity:1;fill-rule:evenodd;stroke:none"
         d="m 524.848,682.18 c 11.011,68.008 41.586,162.781 129.14,163.125 87.77,-0.344 88.008,-95.117 76.473,-163.125 C 720,612.766 689.449,518.008 601.309,517.336 c -87.184,0.672 -87.422,95.43 -76.461,164.844 z M 295.422,680.477 C 265.355,488.398 397.559,381.777 579.219,381.395 762.406,381.777 928.715,488.398 959.867,680.477 990.328,873.391 858.129,980.012 676.078,979.551 493.266,980.012 326.957,873.391 295.422,680.477" /><path
         id="path22"
         style="fill:#fff200;fill-opacity:1;fill-rule:nonzero;stroke:none"
         d="m 1683.78,1137.6 c -30.57,-23.15 -47.36,-25.64 -95.15,-25.49 -75.18,-0.55 -200.85,-0.52 -234.52,0 h -195.43 c 0.02,-0.52 -60.05,-2.66 -79.86,-15.3 -28.05,-16.52 -53.82,-67.5 -54.38,-67.98 l 18.7,124.06 c 0.37,-0.18 18.27,47.27 40.77,67.97 31.21,26.53 59.23,32.65 100.26,32.28 96.52,0.37 214.04,0.6 246.4,0 68.6,0.6 138.09,0.55 193.73,0 27.93,0.46 44.97,1.25 69.67,15.3 28.83,16.32 52.99,67.58 52.66,67.98 l -28.87,-154.65 c 0.42,-0.25 -17.62,-29.95 -33.98,-44.17" /></g></g></svg>