<?xml version="1.0" standalone="no"?>
<!DOCTYPE svg PUBLIC "-//W3C//DTD SVG 20010904//EN"
 "http://www.w3.org/TR/2001/REC-SVG-20010904/DTD/svg10.dtd">
<svg version="1.0" xmlns="http://www.w3.org/2000/svg"
 width="1136.000000pt" height="1136.000000pt" viewBox="0 0 1136.000000 1136.000000"
 preserveAspectRatio="xMidYMid meet">
<metadata>
Created by potrace 1.11, written by Peter Selinger 2001-2013
</metadata>
<g transform="translate(0.000000,1136.000000) scale(0.100000,-0.100000)"
fill="#000000" stroke="none">
<path d="M5308 9705 c-4 -4 -127 -13 -264 -19 -39 -2 -84 -6 -100 -9 -16 -4
-64 -9 -106 -12 -43 -3 -88 -8 -100 -10 -13 -2 -44 -6 -70 -9 -90 -11 -143
-18 -163 -22 -11 -2 -38 -7 -60 -10 -44 -5 -77 -11 -115 -19 -14 -3 -38 -8
-55 -10 -16 -2 -41 -6 -55 -9 -31 -7 -172 -36 -203 -42 -12 -2 -87 -20 -167
-39 -80 -19 -156 -37 -170 -40 -14 -3 -36 -10 -50 -15 -25 -9 -100 -29 -110
-29 -3 0 -36 -11 -75 -24 -38 -13 -74 -25 -80 -27 -86 -23 -435 -148 -530
-190 -11 -5 -47 -21 -80 -36 -33 -14 -64 -27 -70 -29 -5 -1 -40 -16 -77 -33
-36 -18 -71 -32 -77 -32 -6 0 -11 -4 -11 -8 0 -9 -64 -37 -76 -33 -4 2 -10 -1
-13 -7 -3 -5 -49 -31 -101 -58 -86 -44 -243 -130 -280 -154 -8 -5 -40 -24 -70
-42 -139 -81 -392 -258 -560 -392 -75 -60 -97 -78 -158 -135 -18 -17 -35 -31
-38 -31 -2 0 -24 -19 -48 -42 -23 -24 -63 -61 -87 -84 -100 -93 -324 -343
-384 -429 -11 -15 -27 -35 -35 -44 -8 -9 -28 -37 -45 -61 -16 -25 -32 -47 -35
-50 -4 -3 -16 -22 -29 -43 -13 -21 -28 -43 -35 -50 -6 -6 -20 -29 -31 -49 -11
-21 -23 -38 -28 -38 -4 0 -6 -4 -3 -9 4 -5 2 -11 -2 -13 -27 -11 -277 -518
-255 -518 3 0 0 -6 -6 -14 -14 -16 -62 -156 -54 -156 3 0 1 -6 -4 -12 -6 -7
-14 -26 -18 -43 -5 -16 -9 -34 -11 -40 -4 -13 -9 -35 -33 -130 -12 -44 -24
-100 -27 -125 -3 -25 -8 -48 -10 -52 -3 -4 -7 -26 -10 -50 -3 -24 -7 -54 -9
-67 -14 -83 -20 -213 -19 -391 1 -231 8 -332 35 -470 6 -30 12 -64 14 -75 3
-22 13 -70 19 -100 8 -34 46 -179 52 -195 3 -8 5 -16 5 -17 -1 -7 68 -192 78
-211 6 -12 10 -22 7 -22 -6 0 49 -124 112 -250 129 -260 318 -539 537 -789
109 -126 396 -400 526 -503 19 -14 44 -35 56 -45 12 -10 40 -31 63 -47 22 -17
40 -33 40 -38 0 -4 4 -8 10 -8 8 0 107 -67 146 -99 6 -5 60 -41 120 -80 60
-38 114 -75 121 -81 7 -5 14 -10 17 -10 9 0 111 -65 118 -75 4 -5 8 -7 8 -2 0
4 19 -5 42 -20 47 -29 458 -241 471 -242 4 0 41 -16 81 -35 41 -18 90 -39 110
-46 20 -6 38 -16 41 -21 4 -5 17 -9 30 -9 13 0 26 -4 30 -9 3 -5 22 -15 43
-21 20 -7 51 -18 67 -25 17 -8 59 -23 95 -35 36 -12 74 -26 85 -30 11 -5 38
-14 60 -21 22 -6 49 -16 60 -20 60 -25 502 -147 625 -173 14 -3 43 -10 65 -15
22 -5 41 -8 44 -6 2 3 9 1 15 -4 6 -5 29 -11 51 -15 22 -3 51 -8 65 -11 21 -4
121 -23 210 -39 14 -2 43 -7 65 -10 22 -3 49 -7 60 -10 11 -2 47 -7 80 -11 78
-9 118 -14 158 -19 84 -11 156 -18 202 -22 28 -3 68 -6 90 -8 230 -21 853 -28
1105 -12 74 4 142 8 150 8 8 0 22 2 30 5 8 2 51 6 95 8 44 3 96 6 115 9 19 3
60 8 90 11 30 4 64 8 75 10 11 2 43 6 70 9 28 3 77 10 110 16 33 5 74 12 90
14 41 7 95 16 125 22 14 3 36 7 50 9 14 2 59 11 100 20 41 9 86 18 100 21 14
3 63 14 110 25 85 20 122 28 150 34 8 2 17 4 20 5 3 1 8 2 13 1 4 0 7 4 7 10
0 5 4 7 10 4 5 -3 48 6 94 20 47 14 93 28 103 30 28 6 175 52 208 65 17 6 37
13 45 15 8 2 42 13 75 25 33 11 65 22 70 24 6 1 27 10 49 19 21 9 42 17 47 17
5 0 23 6 41 14 18 7 69 28 113 46 44 18 108 46 143 62 35 15 65 28 68 28 3 0
47 20 98 45 52 25 99 45 104 45 6 0 12 3 14 8 2 4 50 31 108 60 58 29 132 68
165 88 33 19 69 39 80 45 11 5 29 15 40 22 106 64 166 102 258 164 59 40 111
73 115 73 4 0 14 9 22 20 8 11 18 20 23 20 4 0 13 5 20 10 11 9 29 23 117 90
18 14 41 32 51 40 10 8 35 29 56 45 140 112 414 376 530 510 102 120 129 153
212 265 22 30 45 60 51 67 5 7 10 17 10 23 0 5 5 10 10 10 6 0 10 6 10 14 0 8
4 16 8 18 10 3 82 114 82 125 0 3 6 14 14 22 39 45 181 331 249 501 24 60 74
205 82 240 2 8 11 36 19 62 8 25 12 49 9 52 -4 3 -2 6 3 6 5 0 10 8 11 18 1
10 9 54 18 98 24 116 24 115 30 159 4 22 8 51 10 65 19 120 27 506 13 635 -4
33 -9 87 -12 120 -3 33 -11 80 -16 105 -6 25 -13 59 -15 75 -2 17 -4 30 -5 30
-1 0 -3 11 -5 25 -4 27 -9 47 -24 98 -5 18 -10 36 -11 40 -3 19 -12 59 -17 72
-3 8 -7 20 -8 25 -5 20 -66 201 -75 220 -5 11 -29 68 -55 128 -49 114 -170
354 -186 367 -3 3 -12 16 -19 30 -21 40 -122 194 -135 205 -6 6 -26 34 -45 63
-18 28 -37 52 -42 52 -5 0 -7 4 -4 9 4 5 3 11 -1 13 -5 1 -39 41 -78 88 -107
129 -112 135 -235 262 -64 65 -114 121 -111 123 2 3 0 5 -6 5 -6 0 -26 15 -45
33 -73 68 -183 164 -237 205 -31 24 -57 48 -59 53 -2 5 -8 9 -13 9 -10 0 -15
4 -61 44 -15 14 -41 33 -58 42 -16 10 -30 22 -30 26 0 4 -6 8 -14 8 -8 0 -16
3 -18 8 -4 10 -220 155 -333 223 -49 30 -91 57 -93 62 -2 4 -8 7 -13 7 -5 0
-84 41 -175 90 -92 50 -173 90 -180 90 -8 0 -14 5 -14 10 0 6 -4 10 -10 10 -5
0 -42 15 -82 34 -134 62 -213 98 -223 100 -5 2 -23 9 -40 16 -69 30 -95 40
-200 80 -60 23 -157 57 -215 76 -58 19 -112 37 -120 41 -8 3 -24 8 -35 10 -11
1 -29 7 -40 12 -11 5 -33 13 -50 17 -16 4 -34 9 -40 10 -48 16 -213 61 -285
78 -80 20 -160 38 -180 42 -14 3 -32 7 -40 10 -8 3 -35 8 -60 11 -25 3 -53 10
-62 15 -10 5 -18 7 -18 4 0 -3 -14 -1 -30 4 -17 5 -53 12 -82 15 -28 4 -59 9
-70 11 -10 2 -26 6 -35 8 -17 4 -156 25 -198 31 -167 21 -193 24 -260 30 -33
3 -73 8 -90 10 -16 2 -70 7 -120 10 -49 3 -115 8 -145 11 -65 6 -857 14 -862
9z"/>
</g>
</svg>
